# xmcd
#
# Track frame offsets: 
#        150
#        14250
#        30477
#        46946
#        65720
#        81017
#        94836
#        110946
#        126294
#        140394
#        155724
#        174498
#        189757
#        205528
#        219187
#        234422
#        251611
#
# Disc length: 3588 seconds
#
# Revision: 0
# Processed by: cddbd v1.5.2PL0 Copyright (c) Steve Scherf et al.
# Submitted via: ExactAudioCopy v1.0b3
#
DISCID=e20e0211
DTITLE=Dafina Zeqiri - Just Me
DYEAR=2011
DGENRE=Alternative
TTITLE0=Supernova
TTITLE1=I Want Ur Love
TTITLE2=Ti Me Thuaj
TTITLE3=D&g (Featuring Geti)
TTITLE4=Dangerously In Love
TTITLE5=Tonight
TTITLE6=Me Mungon
TTITLE7=My Swag
TTITLE8=Supernova (ENG)
TTITLE9=Ti Pom Pelqen (Featuring Ledri Vula)
TTITLE10=Une Kjo Jom
TTITLE11=Amazing Girl
TTITLE12=Dua Qe Ta Di
TTITLE13=Dua Qe Ta Di (RMX)
TTITLE14=Qun I Mames
TTITLE15=Rock This Club
TTITLE16=Shume Large
EXTD=
EXTT0=
EXTT1=
EXTT2=
EXTT3=
EXTT4=
EXTT5=
EXTT6=
EXTT7=
EXTT8=
EXTT9=
EXTT10=
EXTT11=
EXTT12=
EXTT13=
EXTT14=
EXTT15=
EXTT16=
PLAYORDER=
